<svg xmlns="http://www.w3.org/2000/svg" xmlns:xlink="http://www.w3.org/1999/xlink" width="1080" zoomAndPan="magnify" viewBox="0 0 810 809.999993" height="1080" preserveAspectRatio="xMidYMid meet" version="1.0"><defs><clipPath id="2aa509c437"><path d="M 215 110 L 653.925781 110 L 653.925781 729 L 215 729 Z M 215 110 " clip-rule="nonzero"/></clipPath></defs><g clip-path="url(#2aa509c437)"><path fill="#fbb03b" d="M 315.417969 538.921875 L 315.417969 610.496094 C 317.957031 630.640625 320.773438 642.203125 324.082031 645.519531 C 327.289062 649.027344 335.984375 650.859375 350.019531 650.859375 L 506.320312 650.859375 C 518.054688 650.859375 537.0625 652.277344 553.757812 651.398438 C 591.882812 649.382812 628.195312 604.917969 644.921875 573.492188 L 653.921875 573.492188 C 651.785156 587.835938 645.203125 610.472656 633.785156 641.398438 C 630.105469 651.363281 622.421875 670.007812 615.402344 687.625 L 318.917969 687.625 L 318.882812 687.589844 C 318.53125 687.242188 318.183594 686.890625 317.839844 686.539062 L 317.832031 686.535156 C 317.496094 686.191406 317.164062 685.84375 316.832031 685.496094 L 316.640625 685.300781 C 316.351562 684.996094 316.066406 684.691406 315.78125 684.382812 L 315.601562 684.1875 C 315.316406 683.878906 315.035156 683.570312 314.757812 683.261719 L 314.523438 683 L 313.714844 682.089844 L 313.5625 681.914062 C 313.300781 681.609375 313.039062 681.308594 312.777344 681.003906 L 312.324219 680.464844 L 311.785156 679.8125 L 311.226562 679.128906 L 310.855469 678.664062 L 310.261719 677.914062 L 309.886719 677.433594 L 309.296875 676.65625 L 308.984375 676.242188 L 308.429688 675.488281 L 308.058594 674.980469 L 307.5 674.195312 L 307.199219 673.761719 C 306.996094 673.46875 306.796875 673.179688 306.597656 672.886719 L 306.351562 672.519531 L 305.714844 671.554688 L 305.515625 671.246094 C 305.304688 670.921875 305.097656 670.59375 304.890625 670.265625 L 304.671875 669.914062 C 304.472656 669.59375 304.273438 669.273438 304.082031 668.949219 L 303.867188 668.59375 C 303.671875 668.269531 303.480469 667.941406 303.292969 667.613281 L 303.109375 667.296875 C 302.914062 666.957031 302.722656 666.613281 302.53125 666.273438 L 302.347656 665.9375 C 302.148438 665.578125 301.953125 665.21875 301.761719 664.855469 L 301.625 664.59375 C 301.433594 664.226562 301.242188 663.863281 301.058594 663.496094 L 300.90625 663.195312 C 300.722656 662.832031 300.542969 662.46875 300.367188 662.097656 L 300.21875 661.792969 C 300.046875 661.429688 299.875 661.070312 299.707031 660.703125 L 299.554688 660.367188 C 299.367188 659.957031 299.183594 659.550781 299.007812 659.136719 L 298.949219 659.007812 C 298.769531 658.585938 298.585938 658.164062 298.410156 657.738281 L 298.320312 657.519531 C 298.152344 657.109375 297.988281 656.695312 297.824219 656.28125 L 297.734375 656.046875 C 297.570312 655.628906 297.414062 655.207031 297.257812 654.785156 L 297.171875 654.550781 C 297.007812 654.109375 296.851562 653.664062 296.695312 653.214844 L 296.652344 653.09375 C 296.140625 651.597656 295.667969 650.078125 295.234375 648.53125 L 295.226562 648.496094 L 295.214844 648.457031 C 295.074219 647.949219 294.9375 647.441406 294.804688 646.929688 L 294.800781 646.917969 L 294.796875 646.894531 C 294.664062 646.375 294.53125 645.847656 294.40625 645.320312 C 287.03125 614.050781 297.84375 579.125 310.191406 550.515625 L 310.273438 550.332031 L 310.351562 550.152344 L 310.429688 549.96875 L 310.902344 548.878906 L 310.984375 548.695312 L 311.0625 548.515625 L 311.625 547.246094 L 311.703125 547.066406 L 311.785156 546.882812 L 311.789062 546.875 L 311.863281 546.699219 L 311.945312 546.519531 L 312.433594 545.429688 L 312.597656 545.070312 L 312.597656 545.058594 L 312.675781 544.890625 L 312.757812 544.707031 L 312.921875 544.347656 L 313 544.167969 L 313.164062 543.804688 L 313.246094 543.621094 L 313.410156 543.261719 L 313.417969 543.246094 L 313.492188 543.078125 L 313.574219 542.898438 L 313.65625 542.714844 L 313.738281 542.535156 L 313.824219 542.355469 L 313.988281 541.996094 L 314.070312 541.8125 L 314.15625 541.632812 L 314.320312 541.273438 L 314.40625 541.089844 L 314.570312 540.730469 L 314.65625 540.550781 L 314.738281 540.367188 L 314.820312 540.1875 L 314.90625 540.007812 L 314.988281 539.828125 L 315.074219 539.648438 L 315.082031 539.625 L 315.160156 539.46875 L 315.242188 539.285156 L 315.328125 539.105469 L 315.410156 538.925781 Z M 296.898438 121.589844 C 412.921875 81.023438 474.617188 160.828125 443.199219 273.703125 C 401.292969 424.230469 155.925781 630.046875 354.578125 728.972656 C 354.578125 728.972656 232.308594 704.492188 228.03125 610.417969 C 223.496094 510.652344 349.753906 396.734375 386.9375 275.5 C 409.867188 200.738281 406.546875 124.171875 296.898438 121.589844 Z M 347.453125 332.949219 L 347.453125 145.398438 C 347.761719 145.539062 348.066406 145.679688 348.375 145.824219 L 348.804688 146.027344 L 349.679688 146.453125 L 349.984375 146.601562 L 350.847656 147.039062 L 351.261719 147.253906 C 351.574219 147.417969 351.886719 147.582031 352.199219 147.75 L 352.445312 147.886719 C 352.753906 148.054688 353.0625 148.226562 353.371094 148.402344 L 353.601562 148.53125 C 353.914062 148.710938 354.226562 148.890625 354.535156 149.074219 L 354.890625 149.285156 L 355.726562 149.796875 L 356.035156 149.992188 C 356.335938 150.179688 356.632812 150.367188 356.925781 150.5625 L 357.105469 150.679688 C 357.449219 150.90625 357.792969 151.136719 358.132812 151.367188 L 358.265625 151.460938 C 358.582031 151.675781 358.894531 151.898438 359.207031 152.121094 L 359.386719 152.25 C 359.691406 152.46875 359.992188 152.691406 360.292969 152.917969 L 360.503906 153.074219 C 360.804688 153.304688 361.105469 153.535156 361.402344 153.769531 L 361.621094 153.941406 C 361.914062 154.171875 362.203125 154.410156 362.492188 154.648438 L 362.625 154.757812 C 362.949219 155.027344 363.273438 155.300781 363.59375 155.578125 L 363.621094 155.605469 L 363.640625 155.621094 C 363.953125 155.894531 364.261719 156.167969 364.570312 156.449219 L 364.734375 156.601562 C 365.019531 156.863281 365.304688 157.128906 365.582031 157.398438 L 365.695312 157.503906 C 366.007812 157.804688 366.316406 158.109375 366.625 158.417969 L 366.675781 158.472656 C 366.96875 158.769531 367.253906 159.066406 367.539062 159.367188 L 367.671875 159.507812 C 367.949219 159.808594 368.226562 160.109375 368.503906 160.414062 L 368.550781 160.464844 L 368.574219 160.496094 C 368.859375 160.8125 369.132812 161.128906 369.410156 161.453125 L 369.527344 161.59375 C 369.792969 161.90625 370.050781 162.222656 370.308594 162.539062 L 370.394531 162.648438 C 370.664062 162.984375 370.933594 163.324219 371.195312 163.667969 L 371.230469 163.714844 L 371.257812 163.753906 C 371.515625 164.089844 371.765625 164.429688 372.015625 164.773438 L 372.140625 164.945312 C 372.390625 165.296875 372.636719 165.648438 372.878906 166.003906 L 372.902344 166.042969 C 373.160156 166.421875 373.414062 166.804688 373.664062 167.191406 L 373.730469 167.296875 C 373.960938 167.660156 374.1875 168.023438 374.410156 168.394531 L 374.484375 168.515625 C 374.726562 168.914062 374.960938 169.316406 375.191406 169.722656 C 391.484375 198.410156 382.578125 241.695312 373.480469 271.367188 L 372.9375 273.109375 L 372.886719 273.28125 L 372.867188 273.339844 L 372.84375 273.414062 L 372.28125 275.171875 L 372.277344 275.1875 L 372.238281 275.308594 C 372.050781 275.886719 371.863281 276.460938 371.671875 277.039062 L 371.652344 277.09375 L 371.59375 277.277344 L 371.039062 278.9375 L 371.007812 279.019531 L 370.457031 280.628906 L 370.304688 281.070312 L 369.742188 282.679688 L 369.667969 282.890625 L 369.058594 284.59375 L 368.972656 284.832031 L 368.402344 286.398438 L 368.238281 286.847656 L 367.660156 288.390625 L 367.578125 288.605469 L 366.921875 290.34375 L 366.910156 290.375 C 366.679688 290.96875 366.449219 291.566406 366.21875 292.160156 L 366.132812 292.375 L 365.542969 293.875 L 365.347656 294.367188 L 364.695312 295.988281 L 364.675781 296.039062 L 364.667969 296.066406 L 364.644531 296.121094 L 364.636719 296.148438 L 364.625 296.175781 C 364.433594 296.644531 364.242188 297.121094 364.046875 297.59375 L 364.035156 297.621094 L 364.027344 297.648438 L 364.015625 297.675781 L 363.996094 297.726562 L 363.984375 297.753906 L 363.933594 297.878906 L 363.855469 298.070312 L 363.226562 299.585938 L 363.183594 299.6875 L 363.15625 299.75 L 363.039062 300.03125 L 362.398438 301.550781 L 362.371094 301.617188 L 362.335938 301.699219 L 361.621094 303.371094 L 361.570312 303.484375 L 361.546875 303.542969 L 360.84375 305.160156 L 360.761719 305.347656 L 360.710938 305.464844 L 359.996094 307.078125 L 359.941406 307.207031 L 359.863281 307.382812 L 359.1875 308.886719 L 359.109375 309.0625 L 359.003906 309.296875 L 358.375 310.683594 L 358.269531 310.917969 L 358.136719 311.210938 L 357.488281 312.617188 L 357.417969 312.769531 L 357.257812 313.121094 L 356.8125 314.074219 L 356.558594 314.613281 L 356.367188 315.027344 L 355.75 316.335938 L 355.621094 316.605469 L 354.828125 318.261719 L 354.792969 318.339844 L 353.992188 320 L 353.925781 320.136719 L 353.640625 320.722656 C 353.179688 321.667969 352.714844 322.613281 352.246094 323.558594 L 352.125 323.800781 L 352.039062 323.976562 L 351.304688 325.445312 L 351.210938 325.628906 L 351.152344 325.75 L 350.355469 327.328125 L 350.292969 327.449219 L 350.214844 327.601562 L 349.398438 329.203125 L 349.363281 329.269531 L 348.429688 331.078125 L 348.425781 331.085938 L 347.484375 332.898438 L 347.457031 332.949219 Z M 278.347656 396.523438 C 278.347656 396.523438 208.695312 516.019531 215.597656 583.007812 L 215.597656 583.019531 C 220.105469 553.792969 232.703125 525.359375 246.382812 499.835938 C 256.230469 481.46875 267.128906 463.582031 278.347656 445.875 L 278.789062 445.171875 L 278.921875 444.96875 L 279.070312 444.734375 L 279.5 444.058594 L 279.625 443.863281 L 280.074219 443.152344 L 280.179688 442.988281 L 280.457031 442.550781 L 280.65625 442.242188 L 281.234375 441.335938 L 281.292969 441.238281 L 281.8125 440.425781 L 282.128906 439.929688 L 282.390625 439.519531 L 282.410156 439.492188 L 282.96875 438.621094 L 283.511719 437.773438 L 283.527344 437.746094 L 283.550781 437.703125 L 283.804688 437.308594 L 284.132812 436.796875 L 284.644531 436 L 284.710938 435.894531 L 285.292969 434.988281 L 285.484375 434.691406 L 285.761719 434.257812 L 285.875 434.082031 L 286.324219 433.382812 L 286.457031 433.175781 L 286.882812 432.511719 L 287.039062 432.269531 L 287.164062 432.074219 L 287.621094 431.363281 L 288.003906 430.769531 L 288.203125 430.457031 L 288.785156 429.550781 L 288.84375 429.460938 L 289.125 429.023438 L 289.367188 428.644531 L 289.6875 428.152344 L 289.953125 427.742188 L 290.25 427.285156 L 290.527344 426.847656 L 290.535156 426.835938 L 291.121094 425.933594 L 291.371094 425.542969 L 292.214844 424.234375 L 292.285156 424.125 L 292.496094 423.800781 L 292.871094 423.21875 L 293.058594 422.929688 L 293.453125 422.316406 L 293.617188 422.058594 L 293.898438 421.625 L 294.035156 421.410156 L 294.742188 420.320312 L 295.203125 419.601562 L 295.582031 419.011719 L 295.785156 418.699219 L 295.863281 418.578125 L 296.367188 417.796875 L 296.425781 417.707031 L 296.953125 416.894531 L 297.269531 416.402344 L 297.535156 415.988281 L 298.109375 415.097656 L 298.117188 415.085938 L 298.703125 414.183594 L 299.867188 412.375 L 300.351562 411.621094 L 300.449219 411.472656 L 301.03125 410.566406 L 301.472656 409.882812 L 301.613281 409.664062 L 302.191406 408.761719 L 302.589844 408.140625 L 302.773438 407.859375 L 303.355469 406.957031 L 303.710938 406.402344 L 303.933594 406.050781 L 304.515625 405.148438 L 304.828125 404.664062 L 305.09375 404.242188 L 305.671875 403.339844 L 305.941406 402.921875 L 306.25 402.4375 L 307.40625 400.625 L 307.984375 399.722656 L 308.164062 399.441406 L 308.558594 398.816406 L 309.269531 397.699219 L 309.707031 397.007812 L 310.28125 396.105469 L 310.378906 395.957031 L 310.855469 395.199219 L 311.429688 394.292969 L 311.480469 394.210938 L 312 393.386719 L 312.574219 392.480469 L 312.582031 392.46875 L 313.144531 391.574219 L 313.679688 390.726562 L 313.714844 390.667969 L 314.285156 389.761719 L 314.777344 388.976562 L 314.855469 388.855469 L 315.421875 387.949219 L 315.421875 144.992188 L 221.140625 144.992188 L 221.140625 149.109375 C 235.175781 152.316406 248.3125 161.457031 260.5 176.425781 C 272.417969 191.0625 278.351562 221.136719 278.351562 266.765625 L 278.351562 396.527344 Z M 490.171875 617.898438 L 347.453125 617.898438 L 347.453125 479.753906 L 347.71875 479.3125 L 347.847656 479.09375 L 348.636719 477.78125 L 348.761719 477.574219 L 349.03125 477.125 L 349.425781 476.464844 L 349.800781 475.839844 L 349.824219 475.808594 L 350.613281 474.496094 L 350.847656 474.109375 L 351.011719 473.839844 L 351.410156 473.183594 L 351.808594 472.53125 L 351.898438 472.382812 L 352.207031 471.875 L 352.605469 471.222656 L 352.949219 470.65625 L 353.003906 470.566406 L 353.800781 469.261719 L 354 468.933594 L 354.199219 468.609375 L 354.597656 467.953125 L 354.996094 467.304688 L 355.054688 467.207031 L 355.398438 466.648438 L 355.796875 466 L 356.109375 465.488281 L 356.199219 465.347656 L 356.597656 464.695312 L 356.996094 464.046875 L 357.167969 463.773438 L 357.398438 463.394531 L 357.800781 462.746094 L 358.199219 462.09375 L 358.226562 462.058594 L 359.28125 460.34375 L 359.402344 460.148438 L 360.207031 458.851562 L 360.339844 458.632812 L 360.609375 458.207031 L 361.007812 457.558594 L 361.398438 456.925781 L 361.410156 456.910156 L 361.8125 456.265625 L 362.210938 455.617188 L 362.457031 455.222656 L 362.613281 454.972656 L 363.015625 454.324219 L 363.417969 453.679688 L 363.519531 453.515625 L 363.816406 453.035156 L 364.21875 452.390625 L 364.578125 451.816406 L 364.621094 451.746094 L 365.019531 451.101562 L 365.421875 450.457031 L 365.636719 450.117188 L 365.824219 449.8125 L 366.226562 449.171875 L 366.625 448.53125 L 366.691406 448.421875 L 367.027344 447.886719 L 367.425781 447.246094 L 367.75 446.726562 L 367.828125 446.601562 L 368.230469 445.960938 L 368.628906 445.320312 L 368.808594 445.035156 L 369.03125 444.679688 L 370.226562 442.757812 L 370.628906 442.121094 L 370.917969 441.660156 L 371.027344 441.480469 L 371.425781 440.84375 L 371.824219 440.203125 L 371.9375 440.023438 L 371.96875 439.972656 L 372.222656 439.566406 L 372.621094 438.925781 L 373.019531 438.289062 L 373.199219 438.003906 L 373.378906 437.714844 L 373.558594 437.429688 L 373.738281 437.140625 L 373.808594 437.03125 L 373.917969 436.851562 L 374.097656 436.566406 L 374.277344 436.277344 L 374.457031 435.992188 L 374.59375 435.769531 L 374.636719 435.707031 L 374.8125 435.417969 L 374.996094 435.132812 L 375.171875 434.84375 L 375.355469 434.558594 L 375.382812 434.511719 L 375.535156 434.269531 L 375.894531 433.691406 L 376.070312 433.40625 L 376.167969 433.25 L 376.253906 433.117188 L 376.433594 432.832031 L 376.613281 432.542969 L 376.792969 432.257812 L 376.960938 431.992188 L 376.972656 431.96875 L 377.152344 431.683594 L 377.332031 431.394531 L 377.511719 431.109375 L 377.691406 430.820312 L 377.75 430.730469 L 377.875 430.53125 L 378.054688 430.246094 L 378.234375 429.957031 L 378.414062 429.671875 L 378.539062 429.46875 L 378.589844 429.382812 L 378.773438 429.097656 L 378.949219 428.808594 L 379.132812 428.523438 L 379.3125 428.234375 L 379.324219 428.210938 L 379.492188 427.949219 L 380.03125 427.082031 L 380.113281 426.949219 L 380.210938 426.796875 L 380.570312 426.21875 L 380.75 425.933594 L 380.902344 425.6875 L 380.929688 425.644531 L 381.109375 425.355469 L 381.289062 425.070312 L 381.648438 424.492188 L 381.691406 424.425781 L 381.828125 424.207031 L 382.007812 423.917969 L 382.1875 423.632812 L 382.367188 423.34375 L 382.480469 423.164062 L 382.550781 423.054688 L 382.726562 422.769531 L 382.90625 422.480469 L 383.085938 422.195312 L 383.265625 421.90625 L 383.265625 421.902344 L 383.625 421.332031 L 383.984375 420.753906 L 384.054688 420.640625 L 384.164062 420.46875 L 384.34375 420.179688 L 384.523438 419.894531 C 397.492188 399.109375 410.339844 378.21875 422.171875 356.800781 C 429.175781 344.121094 436.019531 330.933594 442.058594 317.417969 C 431.875 397.632812 384.523438 474.195312 384.523438 474.195312 C 384.523438 503.34375 386.207031 515.023438 388.949219 537.933594 C 391.851562 562.179688 394.828125 575.855469 398.40625 579.59375 C 401.691406 583.027344 410.308594 584.933594 424.34375 584.933594 L 454.015625 584.933594 C 487.121094 584.933594 514.398438 579.683594 536.242188 569.214844 C 558.03125 558.777344 577.128906 538.238281 593.453125 507.566406 L 602.453125 507.566406 C 600.320312 521.910156 593.722656 544.539062 582.316406 575.472656 C 576.027344 592.527344 571.515625 606.6875 569.046875 617.894531 L 490.171875 617.894531 Z M 490.171875 617.898438 " fill-opacity="1" fill-rule="evenodd"/></g></svg>